<?xml version="1.0" encoding="utf-8"?>
<!-- Generator: Adobe Illustrator 16.0.0, SVG Export Plug-In . SVG Version: 6.00 Build 0)  -->
<!DOCTYPE svg PUBLIC "-//W3C//DTD SVG 1.1//EN" "http://www.w3.org/Graphics/SVG/1.1/DTD/svg11.dtd">
<svg version="1.1" id="Layer_1" xmlns="http://www.w3.org/2000/svg" xmlns:xlink="http://www.w3.org/1999/xlink" x="0px" y="0px"
	 width="418.487px" height="187.395px" viewBox="0 0 418.487 187.395" enable-background="new 0 0 418.487 187.395"
	 xml:space="preserve">
<g>
	<path d="M251.88,108.125c-1.925-3.104-12.091-0.535-25.36,5.136c0.643,2.568,1.178,5.137,1.392,7.277
		c0.642,1.712,0.963,3.102,0.963,3.745c0,0.749-0.108,1.498-0.321,2.247v0.107c-5.029,22.258-65.059,53.932-76.189,47.832
		c-3.531-1.925-5.351-5.137-6.101-8.454c-2.458-2.996-4.493-7.489-3.424-13.268c1.392-7.492,33.387-28.037,65.17-40.664
		c-18.512-6.421-43.125-9.738-45.586-10.81c-5.67-2.46-8.561-10.164-9.524-14.765c-1.71-2.782-2.995-5.672-2.567-7.598
		c6.207-29.642,71.586-66.774,95.449-58.215c1.071,0.429,2.142,3.103,2.891,5.994c1.711,1.819,3.423,4.602,3.209,6.849
		c-3.637,30.39-63.133,48.582-66.557,47.084c-7.384-3.425-5.886-16.909-3.959-16.159c8.776,3.318,54.146-20.332,63.241-33.922
		c-19.905-4.923-75.654,30.283-84.322,56.287c17.229,5.886,54.254,7.706,61.102,15.197c1.069,1.177,2.033,2.675,2.782,4.28
		c7.917-2.354,15.515-4.066,22.149-4.602C255.841,100.847,252.737,109.407,251.88,108.125 M217.854,117.22
		c-24.184,11.448-54.041,29.963-64.207,42.376C169.806,162.163,207.045,138.194,217.854,117.22"/>
	<path d="M349.789,47.984c-0.427,1.071-1.39,1.606-3.317,1.606c-3.744-0.217-4.921-3.317-3.637-3.211
		c1.604,0.106,2.568-0.857,3.102-2.247c-10.166-6.314-34.456-7.277-57.89-3.747c-17.764,19.799-38.739,50.831-40.986,73.945
		c13.271-7.17,36.812-38.096,36.169-40.77c-0.747-3.211,5.779-1.071,5.244,4.708c-0.427,3.639-36.489,45.801-41.199,46.442
		c-0.963,0.107-2.033-0.428-2.888-1.284c-4.388-2.569-11.878-9.631-10.81-14.232c3.747-16.693,17.55-42.376,31.675-63.672
		c-5.243,1.499-10.059,3.424-14.339,5.458c-1.605,0.857-10.058-8.774-6.635-10.381c5.245-2.461,16.479-5.244,29.536-7.596
		c8.56-11.88,16.371-20.974,21.294-24.293c5.887-3.959,19.689,11.665,15.837,12.307c-2.461,0.428-6.741,3.424-11.983,8.241
		c20.01-2.355,38.736-2.891,44.192,0.533C350.968,34.714,350.219,48.84,349.789,47.984"/>
	<path d="M327.101,80.944c-6.313,1.925-13.697,10.058-20.33,18.726c-7.705,13.27-18.513,25.467-20.439,25.575
		c-2.675,0.107-7.384-1.071-9.737-2.568c-2.568-1.391-6.421-4.708-7.17-7.598c-2.996-11.985,8.561-38.523,18.191-46.015
		c0.962-0.749,3.425,0.216,5.672,1.82c2.139-2.139,4.602-3.851,7.063-5.031c3.209-1.389,12.626,4.711,13.589,7.494
		c1.179,3.1,0.857,7.063-0.427,11.448c5.351-4.921,10.273-9.095,13.589-11.234C330.634,71.206,330.099,79.979,327.101,80.944
		 M296.497,73.453c1.605,1.711,2.676,3.425,1.927,4.386c-12.415,16.481-16.373,29.108-18.192,37.563
		c30.07-32.639,24.825-44.087,21.938-44.087C300.457,71.313,298.424,72.063,296.497,73.453"/>
	<path d="M368.619,81.264c-14.875,4.602-36.384,43.66-36.384,43.66c-0.214,0.214-0.321,0.324-0.428,0.324
		c-4.066-1.179-10.166-5.78-10.809-10.81c-0.642-4.709,9.631-22.794,17.122-34.137c-3.639,0.857-6.849,1.392-7.919,1.07
		c-1.176,0-7.384-6.1-7.812-11.128c-0.321-5.887,11.343-19.584,14.66-20.762c3.317-1.284,12.308,5.244,11.129,6.207
		c-6.741,5.35-12.734,15.41-15.944,21.617c4.494,0.641,11.129-5.886,13.162-6.208c1.392-0.533,9.417,4.496,8.133,6.1
		c-5.564,6.849-9.736,14.768-12.734,22.045c9.844-10.379,21.402-21.296,27.823-25.469C372.15,71.419,371.615,80.301,368.619,81.264"
		/>
	<path d="M407.354,82.013c-12.521,16.052-35.527,40.986-40.664,43.019c0.107,1.284-11.023-2.033-13.806-8.99
		c-2.674-7.062,5.673-33.064,27.824-50.187c2.353-1.712,11.983,8.025,11.664,9.307c1.176,1.394,2.353,3.211,2.353,4.176
		c-0.214,3.209-17.12,20.332-20.651,20.225c-0.428,0-0.857-0.214-1.284-0.642c-2.247,5.137-3.959,10.38-5.029,15.195
		c17.55-8.563,28.356-27.822,36.703-37.025C407.46,73.772,409.493,79.23,407.354,82.013 M376.321,91.965
		c5.563-3.423,10.166-9.523,12.412-14.981C384.24,79.874,379.96,85.438,376.321,91.965"/>
	<path d="M267.963,141.564l-3.604,0.226c-0.049-2.071-0.857-3.107-2.424-3.107c-1.797,0-2.697,1.596-2.697,4.787
		c0,1.844,0.246,3.091,0.735,3.748c0.488,0.656,1.172,0.983,2.047,0.983c1.423,0,2.292-0.924,2.609-2.771l3.334,0.201
		c-0.216,1.759-0.869,3.096-1.962,4.007c-1.096,0.914-2.435,1.372-4.018,1.372c-1.944,0-3.523-0.67-4.74-2.011
		c-1.215-1.341-1.821-3.195-1.821-5.563c0-2.216,0.586-4.029,1.763-5.442c1.176-1.414,2.781-2.118,4.819-2.118
		C265.532,135.875,267.519,137.77,267.963,141.564"/>
	<path d="M281.009,151.009c-1.979,0-3.507-0.743-4.59-2.227s-1.622-3.28-1.622-5.39c0-2.145,0.548-3.934,1.643-5.368
		c1.097-1.433,2.66-2.151,4.688-2.151c2.049,0,3.594,0.77,4.638,2.298c1.042,1.53,1.563,3.282,1.563,5.255
		c0,2.129-0.537,3.926-1.612,5.389C284.642,150.279,283.072,151.009,281.009,151.009 M281.104,138.682
		c-1.804,0-2.705,1.585-2.705,4.754c0,3.178,0.901,4.765,2.705,4.765c1.746,0,2.619-1.583,2.619-4.754
		C283.724,140.269,282.851,138.682,281.104,138.682"/>
	<polygon points="301.636,150.784 298.013,138.81 298.013,150.784 295.129,150.784 295.129,136.099 300.485,136.099 
		303.063,144.889 305.773,136.099 311.146,136.099 311.146,150.784 307.683,150.784 307.683,138.81 303.988,150.784 	"/>
	<path d="M323.12,145.329v5.453h-3.497v-14.683h5.788c1.291,0,2.277,0.139,2.964,0.415c0.684,0.277,1.296,0.77,1.833,1.479
		c0.538,0.709,0.807,1.582,0.807,2.613c0,0.725-0.143,1.431-0.43,2.119c-0.287,0.688-0.692,1.231-1.215,1.624
		c-0.525,0.395-1.032,0.657-1.522,0.783c-0.493,0.133-1.26,0.195-2.308,0.195H323.12z M323.002,142.661h2.236
		c0.853,0,1.455-0.195,1.797-0.59c0.345-0.395,0.516-0.847,0.516-1.355c0-0.597-0.191-1.068-0.574-1.421
		c-0.385-0.35-0.967-0.527-1.748-0.527h-2.227V142.661z"/>
	<path d="M344.805,136.099l4.598,14.685h-3.697l-0.904-3.022h-4.748l-0.92,3.022h-3.017l4.706-14.685H344.805z M340.877,145.05
		h3.112l-1.543-5.153L340.877,145.05z"/>
	<path d="M367.83,136.099v14.685h-2.936l-5.747-9.918c0.008,0.25,0.015,0.415,0.022,0.494c0.028,0.251,0.043,0.463,0.043,0.636
		v8.788h-2.679v-14.685h3.708l4.995,8.66c-0.043-0.43-0.065-0.757-0.065-0.979v-7.681H367.83z"/>
	<polygon points="386.925,136.099 382.311,144.598 382.311,150.784 378.879,150.784 378.879,144.598 374.263,136.099 
		378.254,136.099 381.053,141.66 383.843,136.099 	"/>
	<path fill="#FFD31A" d="M69.357,119.266c1.151,6.284,5.236,9.427,12.255,9.427c7.854,0,18.064-4.607,30.633-13.825
		c7.33-5.343,12.252-8.013,14.766-8.013c3.144,0,6.073,0.841,8.799,2.514c2.722,1.677,4.085,3.404,4.085,5.184
		c0,1.887-1.52,4.348-4.556,7.384c-5.554,5.554-11.939,10.974-19.167,16.26c-7.227,5.291-14.193,9.689-20.894,13.196
		c-6.704,3.511-13.408,6.285-20.109,8.326c-6.702,2.043-12.674,3.065-17.908,3.065c-13.095,0-23.565-3.745-31.42-11.232
		c-7.857-7.488-11.783-17.465-11.783-29.929c0-9.529,2.067-20.291,6.207-32.283c4.135-11.992,9.711-23.224,16.73-33.7
		c8.271-12.254,18.431-22.464,30.478-30.633c14.869-9.846,29.112-14.768,42.729-14.768c9.844,0,17.569,3.117,23.173,9.347
		c5.6,6.231,8.402,14.795,8.402,25.687c0,8.481-2.226,17.335-6.674,26.547c-4.454,9.22-11.025,18.069-19.719,26.551
		c-7.123,7.124-14.113,12.674-20.972,16.652c-6.861,3.981-12.857,5.97-17.988,5.97C74.122,120.994,71.767,120.419,69.357,119.266
		 M69.042,114.239c4.816-3.244,8.484-6.492,10.998-9.74c5.55-6.807,9.843-14.609,12.882-23.408
		c2.408-5.758,4.293-12.199,5.656-19.324c1.359-7.121,2.042-13.771,2.042-19.95c0-5.761-1.206-8.641-3.613-8.641
		c-3.353,0-8.484,7.382-15.395,22.149c-4.086,8.903-7.411,17.781-9.977,26.63c-2.568,8.852-3.85,16.47-3.85,22.858
		C67.786,107.011,68.203,110.154,69.042,114.239"/>
</g>
</svg>
